<svg xmlns="http://www.w3.org/2000/svg" width="1920" height="1080" viewBox="0 0 1920 1080" role="img" aria-labelledby="title desc">
  <title id="title">Casa Paraiso Web-First System Architecture</title>
  <desc id="desc">Browser users access a Laravel Blade web application. Laravel owns authentication, business rules, transactions and APIs, and is the only application layer connected to private Supabase PostgreSQL. The Android APK is a secondary client. Google OAuth, Render HTTPS, Docker Quick Tunnel, MariaDB and the Blade fallback are shown as supporting paths.</desc>
  <defs>
    <marker id="arrow" markerWidth="12" markerHeight="12" refX="10" refY="6" orient="auto"><path d="M0,0 L12,6 L0,12 z" fill="#4F6A4E"/></marker>
    <marker id="goldArrow" markerWidth="12" markerHeight="12" refX="10" refY="6" orient="auto"><path d="M0,0 L12,6 L0,12 z" fill="#B38745"/></marker>
    <filter id="shadow" x="-20%" y="-20%" width="140%" height="140%"><feDropShadow dx="0" dy="7" stdDeviation="8" flood-color="#232620" flood-opacity=".13"/></filter>
    <style>
      .ink{font-family:Arial,Helvetica,sans-serif;fill:#232620}.title{font-size:42px;font-weight:700}.subtitle{font-size:20px;fill:#67675F}.layer{font-size:18px;font-weight:700;letter-spacing:2px;fill:#67675F}.h2{font-size:27px;font-weight:700}.body{font-size:20px}.small{font-size:17px}.tiny{font-size:15px}.node{filter:url(#shadow);stroke-width:2}.users{fill:#F3EBDD;stroke:#B38745}.web{fill:#E9F0E7;stroke:#4F6A4E}.backend{fill:#F4E7D6;stroke:#7A3E14}.data{fill:#E7EEE9;stroke:#334736}.support{fill:#F0ECE5;stroke:#A89F91}.external{fill:#F3EBDD;stroke:#B38745}.boundary{fill:none;stroke:#B38745;stroke-width:3;stroke-dasharray:12 10}.line{fill:none;stroke:#4F6A4E;stroke-width:5;marker-end:url(#arrow)}.goldline{fill:none;stroke:#B38745;stroke-width:4;marker-end:url(#goldArrow)}.dashline{fill:none;stroke:#8A8275;stroke-width:3;stroke-dasharray:10 8;marker-end:url(#goldArrow)}.pill{fill:#334736}.pilltext{font-size:16px;font-weight:700;fill:#FFFCF7;letter-spacing:1px}
    </style>
  </defs>
  <rect width="1920" height="1080" fill="#F5F0E7"/>
  <text x="96" y="76" class="ink title">Casa Paraiso · Web System Architecture</text>
  <text x="96" y="112" class="ink subtitle">Browser-first spa management platform · Laravel remains the business and data authority</text>

  <text x="105" y="180" class="layer">BROWSER USERS</text>
  <text x="505" y="180" class="layer">WEB PRESENTATION</text>
  <text x="1015" y="180" class="layer">APPLICATION &amp; API AUTHORITY</text>
  <text x="1530" y="180" class="layer">MANAGED DATA</text>

  <rect x="72" y="208" width="290" height="480" rx="24" class="node users"/>
  <text x="108" y="262" class="ink h2">Browser users</text>
  <text x="108" y="306" class="ink body">Customer</text><text x="108" y="334" class="ink small">booking · feedback · profile</text>
  <text x="108" y="388" class="ink body">Receptionist</text><text x="108" y="416" class="ink small">front desk · payments</text>
  <text x="108" y="470" class="ink body">Therapist</text><text x="108" y="498" class="ink small">schedule · outcomes · earnings</text>
  <text x="108" y="552" class="ink body">Administrator</text><text x="108" y="580" class="ink small">operations · insights · control</text>
  <text x="108" y="636" class="ink small">Super-admin: protected user access</text>

  <rect x="450" y="208" width="445" height="480" rx="24" class="node web"/>
  <rect x="482" y="238" width="230" height="32" rx="16" class="pill"/><text x="597" y="261" text-anchor="middle" class="pilltext">SERVER-RENDERED WEB</text>
  <text x="482" y="328" class="ink h2">Laravel Blade UI</text>
  <text x="482" y="368" class="ink body">Views · Tailwind CSS · Vite</text>
  <text x="482" y="410" class="ink body">Alpine.js · Turbo Drive</text>
  <text x="482" y="462" class="ink body">Role-scoped workspaces</text>
  <text x="482" y="494" class="ink small">Bookings · customers · payments</text>
  <text x="482" y="522" class="ink small">Schedules · feedback · promotions</text>
  <text x="482" y="550" class="ink small">Reports · settings · user access</text>
  <line x1="482" y1="580" x2="858" y2="580" stroke="#B8C8B6" stroke-width="2"/>
  <text x="482" y="620" class="ink small">Same-origin sessions and CSRF protection</text>
  <text x="482" y="648" class="ink small">Mobile APK remains a secondary API client</text>

  <rect x="965" y="208" width="480" height="480" rx="24" class="node backend"/>
  <rect x="998" y="238" width="188" height="32" rx="16" class="pill"/><text x="1092" y="261" text-anchor="middle" class="pilltext">TRUST BOUNDARY</text>
  <text x="998" y="328" class="ink h2">Laravel 12 application</text>
  <text x="998" y="368" class="ink body">Web routes + versioned /api/v1</text>
  <text x="998" y="410" class="ink body">Breeze/Socialite + Sanctum auth</text>
  <text x="998" y="450" class="ink body">Controllers · requests · policies</text>
  <text x="998" y="490" class="ink body">Services · validation · transactions</text>
  <text x="998" y="530" class="ink body">RFM · sentiment · reporting</text>
  <line x1="998" y1="560" x2="1412" y2="560" stroke="#D9B98C" stroke-width="2"/>
  <text x="998" y="602" class="ink small">Sole business-logic and data-access authority</text>
  <text x="998" y="634" class="ink small">Runtime role: casa_runtime (DML only)</text>

  <rect x="1515" y="208" width="335" height="480" rx="24" class="node data"/>
  <rect x="1548" y="238" width="155" height="32" rx="16" class="pill"/><text x="1625" y="261" text-anchor="middle" class="pilltext">PRIVATE DATA</text>
  <text x="1548" y="328" class="ink h2">Supabase PostgreSQL</text>
  <text x="1548" y="368" class="ink body">PostgreSQL 17 · Sydney region</text>
  <text x="1548" y="414" class="ink body">Private `casa` schema</text>
  <text x="1548" y="464" class="ink small">casa_migrator: schema changes</text>
  <text x="1548" y="494" class="ink small">casa_runtime: table DML</text>
  <text x="1548" y="544" class="ink small">Supavisor · TLS verify-full</text>
  <text x="1548" y="594" class="ink small">No browser or APK direct access</text>
  <text x="1548" y="624" class="ink small">Supabase Auth/Data API unused</text>

  <path d="M362 448 C395 448 410 448 450 448" class="line"/>
  <text x="385" y="426" class="ink tiny">HTTPS</text>
  <path d="M895 448 C925 448 940 448 965 448" class="line"/>
  <text x="900" y="426" class="ink tiny">Laravel web</text>
  <path d="M1445 448 C1470 448 1490 448 1515 448" class="line"/>
  <text x="1452" y="426" class="ink tiny">SQL / TLS</text>

  <rect x="72" y="758" width="1778" height="232" rx="24" class="boundary"/>
  <text x="106" y="790" class="layer">SUPPORTING CLIENT · IDENTITY · DEPLOYMENT · FALLBACK PATHS</text>
  <rect x="108" y="838" width="290" height="110" rx="18" class="node external"/>
  <text x="140" y="882" class="ink h2">Google OAuth</text><text x="140" y="916" class="ink small">Browser redirect · PKCE</text>
  <rect x="470" y="838" width="300" height="110" rx="18" class="node web"/>
  <text x="502" y="882" class="ink h2">Android APK</text><text x="502" y="916" class="ink small">Capacitor · Vue · Sanctum API</text>
  <rect x="842" y="838" width="300" height="110" rx="18" class="node external"/>
  <text x="874" y="882" class="ink h2">Render HTTPS</text><text x="874" y="916" class="ink small">stable production web/API origin</text>
  <rect x="1214" y="838" width="280" height="110" rx="18" class="node support"/>
  <text x="1246" y="882" class="ink h2">Docker + Tunnel</text><text x="1246" y="916" class="ink small">local demonstration backend</text>
  <rect x="1566" y="838" width="234" height="110" rx="18" class="node support"/>
  <text x="1598" y="882" class="ink h2">MariaDB</text><text x="1598" y="916" class="ink small">read-only rollback source</text>

  <path d="M253 838 C430 748 600 724 600 688" class="goldline"/>
  <text x="290" y="820" class="ink tiny">OAuth callback</text>
  <path d="M620 838 C620 770 720 735 720 688" class="goldline"/>
  <text x="535" y="820" class="ink tiny">API client</text>
  <path d="M992 838 C992 770 1080 735 1080 688" class="goldline"/>
  <text x="920" y="820" class="ink tiny">production origin</text>
  <path d="M1354 838 C1354 770 1260 735 1260 688" class="dashline"/>
  <path d="M1683 838 C1683 770 1360 735 1360 688" class="dashline"/>
  <text x="1440" y="820" class="ink tiny">demo / rollback only</text>

  <text x="96" y="1038" class="ink small">Security invariant: browsers and the APK talk to Laravel only; Laravel is the sole authority that talks to Supabase.</text>
</svg>
